<svg xmlns="http://www.w3.org/2000/svg" width="17.098" height="17.098" viewBox="0 0 17.098 17.098">
  <g id="_1" data-name=" 1" transform="translate(0.168 0.168)">
    <rect id="Rectangle_176" data-name="Rectangle 176" width="17" height="17" transform="translate(-0.168 -0.168)" fill="none"/>
    <path id="Path_99" data-name="Path 99" d="M16.879,15.393l-3.5-3.5a7.268,7.268,0,0,0,1.486-4.459A7.385,7.385,0,0,0,7.431,0,7.385,7.385,0,0,0,0,7.431a7.385,7.385,0,0,0,7.431,7.431,7.268,7.268,0,0,0,4.459-1.486l3.5,3.5ZM2.123,7.431A5.256,5.256,0,0,1,7.431,2.123a5.256,5.256,0,0,1,5.308,5.308,5.256,5.256,0,0,1-5.308,5.308A5.256,5.256,0,0,1,2.123,7.431Z" transform="translate(0.051 0.051)" fill="#fd7250"/>
  </g>
</svg>
